<?xml version="1.0" encoding="UTF-8" standalone="no"?>
<!-- Generator: Adobe Illustrator 19.1.0, SVG Export Plug-In . SVG Version: 6.00 Build 0)  -->

<svg
   xmlns:dc="http://purl.org/dc/elements/1.1/"
   xmlns:cc="http://creativecommons.org/ns#"
   xmlns:rdf="http://www.w3.org/1999/02/22-rdf-syntax-ns#"
   xmlns:svg="http://www.w3.org/2000/svg"
   xmlns="http://www.w3.org/2000/svg"
   xmlns:sodipodi="http://sodipodi.sourceforge.net/DTD/sodipodi-0.dtd"
   xmlns:inkscape="http://www.inkscape.org/namespaces/inkscape"
   version="1.1"
   id="Layer_1"
   x="0px"
   y="0px"
   viewBox="0 0 1000 200"
   style="enable-background:new 0 0 1000 200;"
   xml:space="preserve"
   inkscape:version="0.91 r"
   sodipodi:docname="CampyLogo.svg"><metadata
     id="metadata37"><rdf:RDF><cc:Work
         rdf:about=""><dc:format>image/svg+xml</dc:format><dc:type
           rdf:resource="http://purl.org/dc/dcmitype/StillImage" /></cc:Work></rdf:RDF></metadata><defs
     id="defs35" /><sodipodi:namedview
     pagecolor="#ffffff"
     bordercolor="#666666"
     borderopacity="1"
     objecttolerance="10"
     gridtolerance="10"
     guidetolerance="10"
     inkscape:pageopacity="0"
     inkscape:pageshadow="2"
     inkscape:window-width="1920"
     inkscape:window-height="1028"
     id="namedview33"
     showgrid="false"
     inkscape:zoom="0.91641039"
     inkscape:cx="54.611565"
     inkscape:cy="69.135802"
     inkscape:window-x="1676"
     inkscape:window-y="-5"
     inkscape:window-maximized="1"
     inkscape:current-layer="Layer_1" /><style
     type="text/css"
     id="style3">
	.st0{fill:none;stroke:#424242;stroke-width:3;stroke-miterlimit:10;}
	.st1{fill:#377BA8;stroke:#424242;stroke-width:3;stroke-miterlimit:10;}
	.st2{fill:none;stroke:#FFFFFF;stroke-width:1.5;stroke-linecap:round;stroke-miterlimit:10;}
	.st3{fill:#424242;}
</style><line
     class="st0"
     x1="50.224857"
     y1="103.97298"
     x2="67.073288"
     y2="121.42887"
     id="line5"
     style="fill:none;stroke:#424242;stroke-width:1.989;stroke-miterlimit:10;stroke-dasharray:none" /><line
     class="st0"
     x1="115.722"
     y1="105.22568"
     x2="108.86381"
     y2="116.01507"
     id="line7"
     style="fill:none;stroke:#424242;stroke-width:1.961;stroke-miterlimit:10;stroke-dasharray:none" /><circle
     class="st1"
     cx="32.340736"
     cy="80.103088"
     r="29.6"
     id="circle9"
     style="fill:#377ba8;stroke:#424242;stroke-width:2;stroke-miterlimit:10;fill-opacity:0.94117647;stroke-dasharray:none" /><circle
     class="st1"
     cx="132.02902"
     cy="80.641975"
     r="29.6"
     id="circle11"
     style="fill:#377ba8;stroke:#424242;stroke-width:2;stroke-miterlimit:10;fill-opacity:0.94117647;stroke-dasharray:none" /><circle
     class="st1"
     cx="91.628403"
     cy="139.59877"
     r="29.6"
     id="circle13"
     style="fill:#377ba8;stroke:#424242;stroke-width:2;stroke-miterlimit:10;fill-opacity:0.94117647;stroke-dasharray:none" /><path
     class="st2"
     d="m 74.05679,144.79877 c 0,0 -1.3,-10.3 3.1,-10.3 5.8,0 0.9,10.3 7.4,10.3 5.6,0 0,-10.7 6.5,-10.3 6,0 0.5,10.3 6.4,10.3 6.6,0 0.2,-10.3 7.8,-10.3 4.4,0 2.6,10.3 2.6,10.3"
     id="path15"
     inkscape:connector-curvature="0"
     style="fill:none;stroke:#ffffff;stroke-width:1.5;stroke-linecap:round;stroke-miterlimit:10" /><g
     id="g17"><path
       class="st3"
       d="M256.2,142.1c1.2,0,2.2,0.5,3.1,1.4l8.6,9.4c-4.8,5.9-10.6,10.4-17.6,13.6c-7,3.1-15.3,4.7-25.1,4.7   c-8.7,0-16.6-1.5-23.6-4.5c-7-3-12.9-7.1-17.9-12.5c-4.9-5.3-8.7-11.7-11.4-19c-2.6-7.4-3.9-15.4-3.9-24.2c0-8.8,1.5-16.9,4.4-24.3   c2.9-7.4,7.1-13.7,12.4-19c5.3-5.3,11.7-9.5,19.1-12.4c7.4-3,15.6-4.4,24.5-4.4c8.7,0,16.4,1.4,22.9,4.2   c6.5,2.8,12.1,6.5,16.8,11.1l-7.3,10.2c-0.4,0.7-1,1.2-1.7,1.7c-0.7,0.5-1.6,0.7-2.8,0.7c-1.2,0-2.5-0.5-3.8-1.5s-3-2-5-3.2   c-2-1.1-4.5-2.2-7.6-3.2c-3.1-1-7-1.5-11.7-1.5c-5.5,0-10.6,1-15.3,2.9c-4.6,1.9-8.6,4.7-12,8.3s-5.9,7.9-7.8,13.1   c-1.9,5.1-2.8,10.9-2.8,17.3c0,6.6,0.9,12.5,2.8,17.7c1.9,5.2,4.4,9.5,7.6,13c3.2,3.5,7,6.2,11.3,8.1c4.3,1.9,9,2.8,14,2.8   c3,0,5.7-0.2,8.1-0.5c2.4-0.3,4.6-0.8,6.7-1.5s4-1.6,5.8-2.7c1.8-1.1,3.6-2.5,5.4-4.1c0.5-0.5,1.1-0.9,1.7-1.2   C254.9,142.2,255.5,142.1,256.2,142.1z"
       id="path19" /><path
       class="st3"
       d="M387.9,169.8H371c-1.9,0-3.5-0.5-4.7-1.4c-1.2-0.9-2.1-2.1-2.6-3.5l-8.8-24h-48.8l-8.8,24   c-0.4,1.2-1.3,2.4-2.6,3.4c-1.3,1-2.8,1.5-4.7,1.5h-17l46.2-117.7h22.4L387.9,169.8z M311.8,125.4h37.5l-14.3-39.1   c-0.7-1.7-1.4-3.8-2.2-6.1c-0.8-2.4-1.6-4.9-2.3-7.7c-0.8,2.8-1.5,5.3-2.2,7.7c-0.7,2.4-1.5,4.5-2.2,6.3L311.8,125.4z"
       id="path21" /><path
       class="st3"
       d="M461.7,126.4c0.8,1.9,1.6,3.8,2.3,5.7c0.8-2,1.5-3.9,2.4-5.8c0.8-1.9,1.7-3.7,2.6-5.5l34.8-65.2   c0.4-0.8,0.9-1.5,1.3-2c0.5-0.5,1-0.8,1.5-1.1c0.6-0.2,1.2-0.4,1.9-0.4c0.7-0.1,1.5-0.1,2.5-0.1h16.5v117.7h-19.3v-76   c0-1.4,0-3,0.1-4.6c0.1-1.7,0.2-3.4,0.4-5.1l-35.6,66.7c-0.8,1.5-1.9,2.7-3.2,3.5c-1.3,0.8-2.8,1.3-4.6,1.3h-3   c-1.7,0-3.3-0.4-4.6-1.3c-1.3-0.8-2.4-2-3.2-3.5l-36.1-67c0.2,1.8,0.4,3.5,0.4,5.2c0.1,1.7,0.1,3.3,0.1,4.8v76h-19.3V52.1h16.5   c1,0,1.8,0,2.5,0.1c0.7,0.1,1.3,0.2,1.9,0.4c0.6,0.2,1.1,0.6,1.6,1.1c0.5,0.5,0.9,1.1,1.4,2l35.2,65.4   C460.1,122.7,460.9,124.5,461.7,126.4z"
       id="path23" /><path
       class="st3"
       d="M574.1,128.4v41.4h-21.9V52.1h38.3c7.9,0,14.7,0.9,20.4,2.8c5.8,1.8,10.5,4.4,14.2,7.7   c3.7,3.3,6.5,7.3,8.3,11.9c1.8,4.6,2.7,9.7,2.7,15.1c0,5.7-1,10.9-2.8,15.7c-1.9,4.7-4.7,8.8-8.5,12.2c-3.8,3.4-8.5,6.1-14.2,8   c-5.7,1.9-12.4,2.8-20,2.8H574.1z M574.1,111.3h16.4c4,0,7.5-0.5,10.5-1.5c3-1,5.5-2.4,7.4-4.3c2-1.9,3.4-4.2,4.4-6.8   c1-2.7,1.5-5.7,1.5-9c0-3.1-0.5-6-1.5-8.5c-1-2.5-2.4-4.7-4.4-6.5c-2-1.8-4.4-3.2-7.4-4.1c-3-0.9-6.5-1.4-10.5-1.4h-16.4V111.3z"
       id="path25" /><path
       class="st3"
       d="M705.5,124.1v45.7h-21.9v-45.7l-42.9-71.9H660c1.9,0,3.4,0.5,4.5,1.4c1.1,0.9,2,2.1,2.8,3.5l21.6,39.3   c1.2,2.3,2.3,4.5,3.3,6.6c0.9,2.1,1.8,4.1,2.5,6.1c0.7-2.1,1.5-4.1,2.4-6.2c0.9-2.1,2-4.3,3.2-6.6L721.7,57   c0.6-1.2,1.5-2.3,2.7-3.3c1.2-1,2.7-1.5,4.6-1.5h19.4L705.5,124.1z"
       id="path27" /><path
       class="st3"
       d="M864.2,111c0,8.6-1.4,16.5-4.3,23.8c-2.9,7.2-6.9,13.4-12.1,18.6s-11.5,9.3-18.8,12.1   c-7.3,2.9-15.4,4.3-24.3,4.3h-44.9V52.1h44.9c8.9,0,17,1.5,24.3,4.4c7.3,2.9,13.6,6.9,18.8,12.1c5.2,5.2,9.2,11.4,12.1,18.6   C862.8,94.4,864.2,102.4,864.2,111z M841.8,111c0-6.5-0.9-12.2-2.6-17.4c-1.7-5.1-4.2-9.5-7.4-13c-3.2-3.6-7.1-6.3-11.7-8.2   c-4.6-1.9-9.8-2.8-15.5-2.8h-22.9v82.9h22.9c5.8,0,10.9-0.9,15.5-2.8c4.6-1.9,8.5-4.6,11.7-8.2c3.2-3.6,5.7-7.9,7.4-13   C841,123.2,841.8,117.5,841.8,111z"
       id="path29" /><path
       class="st3"
       d="M881.4,169.8V52.1H922c7.7,0,14.3,0.7,19.7,2.2s9.9,3.6,13.4,6.3c3.5,2.7,6.1,6,7.7,9.8   c1.6,3.9,2.4,8.2,2.4,13c0,2.8-0.4,5.4-1.2,7.9c-0.8,2.5-2.1,4.9-3.8,7.1c-1.7,2.2-3.9,4.2-6.5,6c-2.6,1.8-5.8,3.3-9.4,4.6   c16.2,3.6,24.3,12.4,24.3,26.2c0,5-0.9,9.6-2.8,13.8c-1.9,4.2-4.7,7.9-8.3,10.9c-3.6,3.1-8.1,5.5-13.4,7.2   c-5.3,1.7-11.4,2.6-18.2,2.6H881.4z M903.3,103.1h17.5c7.4,0,13.1-1.4,16.9-4.1c3.9-2.7,5.8-7,5.8-12.9c0-6.1-1.7-10.5-5.2-13.1   c-3.5-2.6-8.9-3.9-16.3-3.9h-18.7V103.1z M903.3,118.2v34.5h22.2c4.1,0,7.5-0.5,10.2-1.5c2.7-1,4.9-2.3,6.6-3.9   c1.7-1.6,2.8-3.5,3.6-5.7c0.7-2.2,1.1-4.5,1.1-6.9c0-2.5-0.4-4.8-1.2-6.9c-0.8-2-2.1-3.8-3.8-5.2c-1.7-1.4-4-2.5-6.7-3.3   c-2.7-0.8-6-1.1-9.8-1.1H903.3z"
       id="path31" /></g></svg>