<?xml version="1.0" encoding="UTF-8" standalone="no"?>
<svg
   xmlns:dc="http://purl.org/dc/elements/1.1/"
   xmlns:cc="http://creativecommons.org/ns#"
   xmlns:rdf="http://www.w3.org/1999/02/22-rdf-syntax-ns#"
   xmlns:svg="http://www.w3.org/2000/svg"
   xmlns="http://www.w3.org/2000/svg"
   height="286.77811"
   width="1171.6967"
   xml:space="preserve"
   viewBox="0 0 1171.6967 286.77811"
   y="0px"
   x="0px"
   id="Layer_1"
   version="1.1"><metadata
     id="metadata3371"><rdf:RDF><cc:Work
         rdf:about=""><dc:format>image/svg+xml</dc:format><dc:type
           rdf:resource="http://purl.org/dc/dcmitype/StillImage" /><dc:title /></cc:Work></rdf:RDF></metadata><defs
     id="defs3369" /><style
     id="style3337"
     type="text/css">
	.st0{fill:none;stroke:#424242;stroke-width:3;stroke-miterlimit:10;}
	.st1{fill:#377BA8;stroke:#424242;stroke-width:3;stroke-miterlimit:10;}
	.st2{fill:none;stroke:#FFFFFF;stroke-width:1.5;stroke-linecap:round;stroke-miterlimit:10;}
	.st3{fill:#424242;}
</style><g
     transform="translate(-45.046728,-46.11456)"
     id="g3351"><g
       id="text4294"
       style="font-style:normal;font-weight:normal;font-size:40px;line-height:125%;font-family:sans-serif;letter-spacing:0px;word-spacing:0px;fill:#424242;fill-opacity:1;stroke:none;stroke-width:1px;stroke-linecap:butt;stroke-linejoin:miter;stroke-opacity:1"><path
         id="path34"
         style="font-style:normal;font-variant:normal;font-weight:bold;font-stretch:normal;font-size:180px;font-family:Montserrat;-inkscape-font-specification:'Montserrat Bold';letter-spacing:42.81012726px;fill:#424242;fill-opacity:1"
         d="m 110.38673,149.97456 q 20.7,0 33.84,-16.38 l 18,18.54 q -21.42,24.12 -50.58,24.12 -28.980002,0 -47.880002,-18.36 -18.72,-18.36 -18.72,-46.26 0,-28.08 19.08,-46.8 19.26,-18.72 46.980002,-18.72 30.96,0 51.84,23.58 l -17.46,19.8 q -13.32,-16.56 -33.12,-16.56 -15.840002,0 -27.180002,10.44 -11.16,10.26 -11.16,27.9 0,17.46 10.62,28.08 10.62,10.62 25.740002,10.62 z" /><path
         id="path36"
         style="font-style:normal;font-variant:normal;font-weight:bold;font-stretch:normal;font-size:180px;font-family:Montserrat;-inkscape-font-specification:'Montserrat Bold';letter-spacing:42.81012726px;fill:#424242;fill-opacity:1"
         d="m 315.8381,174.81456 -11.7,-27.18 -52.74,0 -11.7,27.18 -29.88,0 54.36,-125.82 27.18,0 54.36,125.82 -29.88,0 z m -37.98,-88.38 -15.84,36.54 31.5,0 -15.66,-36.54 z" /><path
         id="path38"
         style="font-style:normal;font-variant:normal;font-weight:bold;font-stretch:normal;font-size:180px;font-family:Montserrat;-inkscape-font-specification:'Montserrat Bold';letter-spacing:42.81012726px;fill:#424242;fill-opacity:1"
         d="m 515.63353,95.61456 -34.02,68.76 -16.74,0 -33.84,-68.76 0,79.2 -28.08,0 0,-125.82 37.98,0 32.4,69.12 32.58,-69.12 37.8,0 0,125.82 -28.08,0 0,-79.2 z" /><path
         id="path40"
         style="font-style:normal;font-variant:normal;font-weight:bold;font-stretch:normal;font-size:180px;font-family:Montserrat;-inkscape-font-specification:'Montserrat Bold';letter-spacing:42.81012726px;fill:#424242;fill-opacity:1"
         d="m 661.78615,48.99456 q 28.98,0 42.12,11.34 13.32,11.16 13.32,34.56 0,23.22 -13.68,34.02 -13.5,10.8 -41.4,10.8 l -16.74,0 0,35.1 -28.08,0 0,-125.82 44.46,0 z m 2.52,66.42 q 14.04,0 19.08,-5.58 5.04,-5.76 5.04,-16.56 0,-10.98 -6.66,-15.48 -6.48,-4.68 -20.34,-4.68 l -16.02,0 0,42.3 18.9,0 z" /><path
         id="path42"
         style="font-style:normal;font-variant:normal;font-weight:bold;font-stretch:normal;font-size:180px;font-family:Montserrat;-inkscape-font-specification:'Montserrat Bold';letter-spacing:42.81012726px;fill:#424242;fill-opacity:1"
         d="m 835.25377,174.81456 -28.08,0 0,-49.68 -43.56,-76.14 30.42,0 27.18,46.8 27.18,-46.8 30.42,0 -43.56,76.14 0,49.68 z" /><path
         id="path44"
         style="font-style:normal;font-variant:normal;font-weight:bold;font-stretch:normal;font-size:180px;font-family:Montserrat;-inkscape-font-specification:'Montserrat Bold';letter-spacing:42.81012726px;fill:#424242;fill-opacity:1"
         d="m 979.4377,48.99456 q 33.66,0 51.66,16.56 18,16.38 18,45.72 0,29.34 -17.64,46.44 -17.46,17.1 -53.46,17.1 l -43.02,0 0,-125.82 44.46,0 z m 1.44,100.98 q 19.26,0 29.52,-9.72 10.44,-9.72 10.44,-28.26 0,-18.54 -10.44,-28.44 -10.26,-10.08 -31.68,-10.08 l -15.66,0 0,76.5 17.82,0 z" /><path
         id="path46"
         style="font-style:normal;font-variant:normal;font-weight:bold;font-stretch:normal;font-size:180px;font-family:Montserrat;-inkscape-font-specification:'Montserrat Bold';letter-spacing:42.81012726px;fill:#424242;fill-opacity:1"
         d="m 1171.3834,174.81456 -55.08,0 0,-125.82 48.96,0 q 12.78,0 21.96,3.06 9.36,3.06 14.04,8.28 8.46,9.72 8.46,21.96 0,14.76 -9.54,21.96 -3.24,2.52 -4.5,3.24 -1.26,0.54 -4.5,1.98 11.7,2.52 18.54,10.62 7.02,7.92 7.02,19.8 0,13.14 -9,23.22 -10.44,11.7 -36.36,11.7 z m -27,-74.88 13.32,0 q 11.7,0 17.28,-2.52 5.76,-2.52 5.76,-10.8 0,-8.46 -5.22,-11.16 -5.22,-2.7 -17.64,-2.7 l -13.5,0 0,27.18 z m 0,51.12 19.26,0 q 12.06,0 18,-2.88 6.12,-3.06 6.12,-11.7 0,-8.82 -6.48,-11.52 -6.3,-2.88 -20.34,-2.88 l -16.56,0 0,28.98 z" /></g></g><g
     transform="translate(-211.85103,-133.06749)"
     id="g4660"><path
       id="circle3343-2"
       d="m 580.39545,320.10565 a 30.034248,30.034248 0 0 1 -30.03424,30.03425 30.034248,30.034248 0 0 1 -30.03425,-30.03425 30.034248,30.034248 0 0 1 30.03425,-30.03425 30.034248,30.034248 0 0 1 30.03424,30.03425 z"
       style="fill:#377ba8;fill-opacity:0.94117647;stroke:#424242;stroke-width:2.3337419;stroke-miterlimit:10;stroke-dasharray:none" /><path
       style="fill:none;fill-rule:evenodd;stroke:#424242;stroke-width:2.33407283;stroke-linecap:butt;stroke-linejoin:miter;stroke-miterlimit:4;stroke-dasharray:none;stroke-opacity:1"
       d="m 581.19555,320.74331 418.73077,0"
       id="path4205" /><path
       id="circle3343-2-4"
       d="m 1060.6851,320.02515 a 30.034248,30.034248 0 0 1 -30.0342,30.03424 30.034248,30.034248 0 0 1 -30.0343,-30.03424 30.034248,30.034248 0 0 1 30.0343,-30.03425 30.034248,30.034248 0 0 1 30.0342,30.03425 z"
       style="fill:#377ba8;fill-opacity:0.94117647;stroke:#424242;stroke-width:2.33407283;stroke-miterlimit:10;stroke-dasharray:none" /><path
       id="circle3343-2-7"
       d="m 581.05769,388.64447 a 30.034248,30.034248 0 0 1 -30.03425,30.03425 30.034248,30.034248 0 0 1 -30.03425,-30.03425 30.034248,30.034248 0 0 1 30.03425,-30.03425 30.034248,30.034248 0 0 1 30.03425,30.03425 z"
       style="fill:#377ba8;fill-opacity:0.94117647;stroke:#424242;stroke-width:2.3337419;stroke-miterlimit:10;stroke-dasharray:none" /><path
       style="fill:none;fill-rule:evenodd;stroke:#424242;stroke-width:2.33407283;stroke-linecap:butt;stroke-linejoin:miter;stroke-miterlimit:4;stroke-dasharray:none;stroke-opacity:1"
       d="m 581.85785,389.28213 418.73075,0"
       id="path4205-48" /><path
       id="circle3343-2-4-0"
       d="m 1061.3472,388.56393 a 30.034248,30.034248 0 0 1 -30.0342,30.03425 30.034248,30.034248 0 0 1 -30.0343,-30.03425 30.034248,30.034248 0 0 1 30.0343,-30.03424 30.034248,30.034248 0 0 1 30.0342,30.03424 z"
       style="fill:#377ba8;fill-opacity:0.94117647;stroke:#424242;stroke-width:2.33407283;stroke-miterlimit:10;stroke-dasharray:none" /><g
       id="g4643"
       transform="matrix(0.74651458,0,0,0.74651458,261.37731,98.673662)"><path
         id="path4306"
         d="m 1006.7561,384.98334 c 0,-5.37465 6.9943,-5.44327 6.9943,0.0723"
         style="fill:none;fill-opacity:1;fill-rule:evenodd;stroke:#ffffff;stroke-width:2.55299997;stroke-linecap:butt;stroke-linejoin:miter;stroke-miterlimit:10;stroke-dasharray:none;stroke-opacity:1" /><path
         id="path4358"
         d="m 1006.7577,396.69752 0,-12.10947"
         style="fill:none;fill-rule:evenodd;stroke:#ffffff;stroke-width:2.55299997;stroke-linecap:butt;stroke-linejoin:miter;stroke-miterlimit:10;stroke-dasharray:none;stroke-opacity:1" /><path
         id="path4306-3"
         d="m 1020.7454,392.23036 c 0,5.37466 -6.9943,5.44327 -6.9943,-0.0723"
         style="fill:none;fill-rule:evenodd;stroke:#ffffff;stroke-width:2.55299997;stroke-linecap:butt;stroke-linejoin:miter;stroke-miterlimit:10;stroke-dasharray:none;stroke-opacity:1" /><path
         id="path4358-0"
         d="m 1013.7489,384.79008 0,7.57359"
         style="fill:none;fill-rule:evenodd;stroke:#ffffff;stroke-width:2.55299997;stroke-linecap:butt;stroke-linejoin:miter;stroke-miterlimit:10;stroke-dasharray:none;stroke-opacity:1" /><path
         id="path4306-3-4"
         d="m 1027.743,385.015 c 0,-5.37466 -6.9943,-5.44326 -6.9943,0.0723"
         style="fill:none;fill-rule:evenodd;stroke:#ffffff;stroke-width:2.55299997;stroke-linecap:butt;stroke-linejoin:miter;stroke-miterlimit:10;stroke-dasharray:none;stroke-opacity:1" /><path
         id="path4358-0-0"
         d="m 1020.7466,392.51591 0,-7.57358"
         style="fill:none;fill-rule:evenodd;stroke:#ffffff;stroke-width:2.55299997;stroke-linecap:butt;stroke-linejoin:miter;stroke-miterlimit:10;stroke-dasharray:none;stroke-opacity:1" /><path
         id="path4306-3-4-8"
         d="m 1034.7393,392.2356 c 0,5.37466 -6.9943,5.44326 -6.9943,-0.0723"
         style="fill:none;fill-rule:evenodd;stroke:#ffffff;stroke-width:2.55299997;stroke-linecap:butt;stroke-linejoin:miter;stroke-miterlimit:10;stroke-dasharray:none;stroke-opacity:1" /><path
         id="path4358-0-0-5"
         d="m 1027.7428,384.79868 0,7.57358"
         style="fill:none;fill-rule:evenodd;stroke:#ffffff;stroke-width:2.55299997;stroke-linecap:butt;stroke-linejoin:miter;stroke-miterlimit:10;stroke-dasharray:none;stroke-opacity:1" /><path
         style="fill:none;fill-rule:evenodd;stroke:#ffffff;stroke-width:2.55299997;stroke-linecap:butt;stroke-linejoin:miter;stroke-miterlimit:10;stroke-dasharray:none;stroke-opacity:1"
         d="m 1041.7348,384.95639 c 0,-5.37466 -6.9943,-5.44326 -6.9943,0.0723"
         id="path4306-3-4-1" /><path
         style="fill:none;fill-rule:evenodd;stroke:#ffffff;stroke-width:2.55299997;stroke-linecap:butt;stroke-linejoin:miter;stroke-miterlimit:10;stroke-dasharray:none;stroke-opacity:1"
         d="m 1034.7383,392.52082 0,-7.57358"
         id="path4358-0-0-2" /><path
         id="path4306-3-4-8-9"
         d="m 1048.7267,392.03648 c 0,5.37466 -6.9943,5.44326 -6.9943,-0.0723"
         style="fill:none;fill-rule:evenodd;stroke:#ffffff;stroke-width:2.55299997;stroke-linecap:butt;stroke-linejoin:miter;stroke-miterlimit:10;stroke-dasharray:none;stroke-opacity:1" /><path
         id="path4358-0-0-5-0"
         d="m 1041.7302,384.47207 0,7.57358"
         style="fill:none;fill-rule:evenodd;stroke:#ffffff;stroke-width:2.55299997;stroke-linecap:butt;stroke-linejoin:miter;stroke-miterlimit:10;stroke-dasharray:none;stroke-opacity:1" /><path
         style="fill:none;fill-rule:evenodd;stroke:#ffffff;stroke-width:2.55299997;stroke-linecap:butt;stroke-linejoin:miter;stroke-miterlimit:10;stroke-dasharray:none;stroke-opacity:1"
         d="m 1055.7221,384.81887 c 0,-5.37465 -6.9943,-5.44326 -6.9943,0.0723"
         id="path4306-3-4-1-7" /><path
         style="fill:none;fill-rule:evenodd;stroke:#ffffff;stroke-width:2.55299997;stroke-linecap:butt;stroke-linejoin:miter;stroke-miterlimit:10;stroke-dasharray:none;stroke-opacity:1"
         d="m 1048.7256,392.19421 0,-7.57358"
         id="path4358-0-0-2-8" /><path
         id="path4358-5-0"
         d="m 1055.7171,397.00281 0,-12.4791"
         style="fill:none;fill-rule:evenodd;stroke:#ffffff;stroke-width:2.55299997;stroke-linecap:butt;stroke-linejoin:miter;stroke-miterlimit:10;stroke-dasharray:none;stroke-opacity:1" /></g></g></svg>