<?xml version="1.0" encoding="UTF-8" standalone="no"?>
<!DOCTYPE svg PUBLIC "-//W3C//DTD SVG 20010904//EN" "http://www.w3.org/TR/2001/REC-SVG-20010904/DTD/svg10.dtd">
<svg version="1.0" xmlns="http://www.w3.org/2000/svg" width="300.000000pt" height="37.000000pt" viewBox="0 0 300.000000 37.000000" preserveAspectRatio="xMidYMid meet">
<metadata>
Created by potrace 1.10, written by Peter Selinger 2001-2011
</metadata>
<g transform="translate(0.000000,37.000000) scale(0.100000,-0.100000)" fill="#000000" stroke="none">
<path d="M35 335 c-34 -33 -32 -70 5 -107 26 -25 36 -29 62 -24 27 5 36 1 61 -25 20 -22 25 -35 18 -42 -18 -18 -13 -62 10 -91 29 -37 89 -37 118 0 25 32 27 62 5 92 -20 28 -13 36 32 38 102 3 102 154 1 154 -63 0 -100 -76 -62 -126 21 -28 18 -37 -12 -31 -15 3 -38 1 -52 -4 -20 -8 -29 -5 -52 17 -26 25 -27 29 -14 48 36 51 -3 126 -65 126 -19 0 -40 -9 -55 -25z m92 -7 c18 -23 23 -64 10 -82 -9 -13 -24 -17 -52 -14 -33 2 -41 8 -49 30 -13 37 14 78 53 78 16 0 33 -6 38 -12z m254 -28 c23 -13 26 -72 4 -90 -22 -18 -66 -15 -82 6 -40 54 17 116 78 84z m-95 -165 c17 -13 15 -14 -33 -15 -48 0 -51 -1 -45 -22 5 -19 7 -20 10 -5 4 19 4 19 26 11 17 -7 22 -34 6 -34 -5 0 -10 5 -10 11 0 8 -5 8 -15 -1 -12 -10 -16 -8 -24 11 -18 47 41 77 85 44z m-5 -42 c0 -15 2 -15 9 2 7 16 9 17 9 3 1 -26 -17 -31 -29 -8 -7 13 -7 20 0 20 5 0 10 -8 11 -17z m-1 -43 c-20 -13 -57 -13 -65 0 -4 6 11 10 37 10 31 0 39 -3 28 -10z"/>
<path d="M2790 340 c0 -19 4 -22 29 -18 17 2 27 0 24 -4 -3 -5 1 -9 8 -7 51 6 77 -22 84 -91 3 -35 1 -43 -15 -47 -11 -3 -17 -9 -14 -14 3 -5 9 -7 14 -4 4 3 13 -2 21 -11 10 -13 9 -16 -9 -21 -24 -6 -29 -27 -10 -39 7 -5 8 -3 3 6 -4 7 -2 16 6 21 21 13 33 11 20 -4 -8 -10 -8 -16 1 -25 13 -13 20 -64 7 -56 -5 3 -7 10 -4 15 4 5 3 14 -1 20 -4 8 -9 7 -15 -2 -7 -11 -9 -11 -9 -1 0 7 -4 11 -9 8 -5 -3 4 -19 19 -36 31 -33 36 -36 37 -17 0 6 3 25 6 41 4 18 -1 42 -13 66 -11 23 -19 57 -18 84 1 59 -16 100 -50 117 -15 8 -30 18 -33 22 -3 4 -22 10 -42 14 -33 5 -37 3 -37 -17z"/>
<path d="M520 328 c-59 -30 -85 -76 -84 -148 0 -62 22 -111 59 -136 55 -36 135 -36 191 1 24 16 25 18 9 35 -16 17 -19 18 -40 4 -46 -30 -113 -19 -141 23 -37 57 -17 151 38 179 35 18 62 18 99 -2 29 -14 32 -14 44 3 17 22 11 32 -31 49 -48 20 -93 17 -144 -8z"/>
<path d="M840 325 c-56 -145 -113 -292 -117 -297 -2 -5 10 -8 27 -8 28 0 34 5 47 40 l16 40 67 0 67 0 13 -40 c12 -36 17 -40 45 -40 l32 0 -64 163 c-64 160 -65 162 -95 162 -21 0 -33 -6 -38 -20z m63 -103 c10 -31 20 -63 23 -69 4 -10 -9 -13 -46 -13 -38 0 -51 3 -47 13 2 6 13 38 23 70 10 31 20 57 23 57 3 0 14 -26 24 -58z m-95 -94 c-2 -6 -10 -14 -16 -16 -7 -2 -10 2 -6 12 7 18 28 22 22 4z m162 -8 c10 -19 10 -20 -9 -8 -11 6 -17 16 -15 20 8 12 12 10 24 -12z"/>
<path d="M1070 183 l0 -163 28 0 27 0 -3 117 -2 118 45 -80 c25 -44 47 -88 51 -97 3 -10 15 -18 28 -18 18 0 32 18 74 98 l52 97 0 -117 0 -118 25 0 25 0 0 164 0 163 -32 -6 c-30 -6 -39 -17 -88 -112 l-55 -105 -55 107 c-51 100 -57 108 -87 111 l-33 4 0 -163z m70 84 c0 -6 -3 -7 -7 -4 -3 4 -12 2 -20 -4 -10 -9 -13 -4 -13 27 l1 39 19 -24 c11 -13 20 -28 20 -34z m250 11 c0 -29 -2 -31 -15 -17 -9 9 -13 23 -9 32 10 28 24 19 24 -15z"/>
<path d="M1490 183 l0 -163 30 0 c30 0 30 0 30 58 l0 57 51 2 c28 1 61 8 73 17 50 32 58 123 15 162 -16 15 -42 20 -110 24 l-89 5 0 -162z m50 133 c0 -3 -4 -8 -10 -11 -5 -3 -10 -1 -10 4 0 6 5 11 10 11 6 0 10 -2 10 -4z m100 -36 c41 -41 9 -100 -55 -100 l-35 0 0 60 0 60 35 0 c22 0 43 -8 55 -20z m-109 -137 c-9 -16 -10 -14 -11 12 0 21 3 26 11 18 8 -8 8 -16 0 -30z"/>
<path d="M1749 316 c92 -149 101 -169 101 -233 l0 -63 30 0 30 0 0 61 c0 55 4 68 58 157 31 53 58 100 60 103 2 4 -12 6 -30 5 -30 -3 -36 -9 -74 -81 l-42 -79 -36 71 c-39 78 -46 85 -88 88 l-28 3 19 -32z m141 -183 c0 -32 -5 -28 -14 10 -4 19 -3 26 4 22 5 -3 10 -18 10 -32z"/>
<path d="M2060 183 l0 -163 89 0 c75 0 93 3 121 22 73 50 96 122 66 203 -27 70 -62 89 -178 95 l-98 5 0 -162z m44 110 c-10 -40 -14 -41 -14 -5 0 18 5 32 10 32 6 0 8 -11 4 -27z m146 -18 c31 -28 44 -83 31 -133 -14 -51 -41 -71 -110 -79 l-51 -6 0 123 0 122 55 -4 c34 -3 62 -12 75 -23z m-153 -92 c-3 -10 -5 -4 -5 12 0 17 2 24 5 18 2 -7 2 -21 0 -30z m0 -72 c0 -11 -5 -18 -9 -15 -4 3 -5 11 -1 19 7 21 12 19 10 -4z m7 -47 c8 -21 8 -24 -3 -24 -5 0 -11 9 -14 20 -6 24 8 27 17 4z"/>
<path d="M2398 182 l-3 -162 83 0 c96 0 133 15 152 60 16 38 -2 88 -35 96 -22 5 -22 6 6 34 32 31 35 46 18 84 -16 34 -30 39 -131 45 l-87 6 -3 -163z m156 102 c37 -36 2 -84 -61 -84 -33 0 -33 0 -33 50 l0 50 39 0 c23 0 46 -7 55 -16z m46 -4 c0 -5 -2 -10 -4 -10 -3 0 -8 5 -11 10 -3 6 -1 10 4 10 6 0 11 -4 11 -10z m-158 -112 c-9 -9 -12 -7 -12 12 0 19 3 21 12 12 9 -9 9 -15 0 -24z m122 -24 c35 -35 8 -73 -57 -80 l-47 -5 0 50 0 51 44 0 c27 0 51 -6 60 -16z"/>
<path d="M2933 337 c9 -8 17 -20 17 -26 0 -7 5 -9 10 -6 6 3 11 -4 11 -17 1 -18 2 -19 6 -5 5 21 -11 44 -41 58 -19 9 -20 9 -3 -4z"/>
<path d="M2756 298 c4 -7 16 -25 26 -41 19 -27 19 -27 -2 -54 -13 -17 -17 -29 -10 -31 6 -2 20 8 31 22 12 15 26 23 32 19 7 -3 5 2 -4 13 -9 10 -22 30 -29 43 -10 19 -10 22 2 15 23 -15 34 -12 35 8 2 15 -1 17 -12 8 -10 -8 -19 -8 -34 -1 -27 15 -44 14 -35 -1z"/>
<path d="M2868 293 c7 -3 16 -2 19 1 4 3 -2 6 -13 5 -11 0 -14 -3 -6 -6z"/>
<path d="M2845 258 c-2 -7 -3 -24 -2 -38 1 -16 -3 -25 -13 -25 -8 0 -21 -12 -28 -27 -7 -16 -18 -28 -23 -28 -6 0 -8 -4 -4 -10 3 -5 -6 -32 -20 -60 -24 -48 -26 -70 -4 -70 5 0 8 3 8 8 -4 21 2 24 15 7 13 -18 14 -18 14 6 0 46 23 138 39 150 13 11 17 10 28 -5 15 -20 35 -102 35 -141 0 -14 5 -25 10 -25 7 0 9 19 6 48 -3 26 -5 61 -6 77 0 20 -3 26 -9 17 -7 -11 -9 -11 -14 2 -4 9 -1 16 5 16 7 0 6 5 -2 15 -7 8 -17 12 -23 8 -6 -3 -7 -1 -3 5 4 7 13 12 20 12 7 0 18 12 24 28 12 27 12 27 -4 5 -22 -31 -39 -29 -19 1 14 21 14 24 0 30 -23 8 -25 8 -30 -6z"/>
</g>
</svg>